<svg xmlns="http://www.w3.org/2000/svg" version="1.1" xmlns:xlink="http://www.w3.org/1999/xlink" xmlns:svgjs="http://svgjs.com/svgjs" width="1440" height="800" preserveAspectRatio="none" viewBox="0 0 1440 800"><g mask="url(&quot;#SvgjsMask1012&quot;)" fill="none"><rect width="1440" height="800" x="0" y="0" fill="#0e2a47"></rect><circle r="8.72" cx="10.370000000000001" cy="21.310000000000002" filter="url(#SvgjsFilter1013)" fill="rgba(51, 121, 194, 0.58)"></circle><circle r="7.88" cx="430.48" cy="288.3" filter="url(#SvgjsFilter1013)" fill="rgba(51, 121, 194, 0.58)"></circle><circle r="8.205" cx="1256.985" cy="378.905" filter="url(#SvgjsFilter1013)" fill="rgba(51, 121, 194, 0.58)"></circle><circle r="12.17" cx="300.85" cy="357.32" filter="url(#SvgjsFilter1013)" fill="rgba(51, 121, 194, 0.58)"></circle><circle r="12.275" cx="56.555" cy="383.015" filter="url(#SvgjsFilter1013)" fill="rgba(51, 121, 194, 0.58)"></circle><circle r="12.275" cx="1262.9850000000001" cy="532.765" filter="url(#SvgjsFilter1013)" fill="rgba(51, 121, 194, 0.58)"></circle><circle r="13.265" cx="795.155" cy="25.155" filter="url(#SvgjsFilter1013)" fill="rgba(51, 121, 194, 0.58)"></circle><circle r="7.26" cx="678.99" cy="83.64" filter="url(#SvgjsFilter1013)" fill="rgba(51, 121, 194, 0.58)"></circle><circle r="12.38" cx="675.92" cy="90.03999999999999" filter="url(#SvgjsFilter1013)" fill="rgba(51, 121, 194, 0.58)"></circle><circle r="12.095" cx="1137.345" cy="308.845" filter="url(#SvgjsFilter1013)" fill="rgba(51, 121, 194, 0.58)"></circle><circle r="9.25" cx="1056.7" cy="797.05" filter="url(#SvgjsFilter1013)" fill="rgba(51, 121, 194, 0.58)"></circle><circle r="8.78" cx="459.4" cy="726.4" filter="url(#SvgjsFilter1013)" fill="rgba(51, 121, 194, 0.58)"></circle><circle r="11.045" cx="281.285" cy="91.675" filter="url(#SvgjsFilter1013)" fill="rgba(51, 121, 194, 0.58)"></circle><circle r="11.19" cx="163.64" cy="444.73" filter="url(#SvgjsFilter1013)" fill="rgba(51, 121, 194, 0.58)"></circle><circle r="10.725" cx="1142.955" cy="431.175" filter="url(#SvgjsFilter1013)" fill="rgba(51, 121, 194, 0.58)"></circle><circle r="10.825" cx="66.255" cy="657.225" filter="url(#SvgjsFilter1013)" fill="rgba(51, 121, 194, 0.58)"></circle><circle r="6.865" cx="153.185" cy="233.995" filter="url(#SvgjsFilter1013)" fill="rgba(51, 121, 194, 0.58)"></circle><circle r="10.345" cx="88.475" cy="720.345" filter="url(#SvgjsFilter1013)" fill="rgba(51, 121, 194, 0.58)"></circle><circle r="9.67" cx="327.42" cy="358.87" filter="url(#SvgjsFilter1013)" fill="rgba(51, 121, 194, 0.58)"></circle><circle r="11.145" cx="701.795" cy="432.955" filter="url(#SvgjsFilter1013)" fill="rgba(51, 121, 194, 0.58)"></circle><path d="M927.7 323.6L910.9 338.3 907.7 325.2C907.5 323.7 905.9 322.5 903.9 322.6 902.2 323.4 901 325 901.9 326.6L905.3 343.2 892.6 355.2 885.6 320.7C884.8 319.1 883.2 317.9 881.8 318.1 879.5 318.7 878.3 320.4 879.2 322L887 360.1 867.1 377.9 864.2 347.4 844 370.5 838.3 344.4 867 318C867.6 318.2 867.8 317.6 868 317 868.4 315.8 868.2 314.4 867.1 313.4 866.1 312.4 864.1 312.4 862.5 313.2L836.6 337.1 833.4 320 845.8 308.5C846.6 308.1 846.8 307.5 847 306.9 847.2 306.3 847 304.9 846 303.8 845 302.8 843 302.9 842 303.9L831.7 312.7 826.7 290.9C826.6 288.8 824.8 288.3 822.8 288.3 821.4 288.5 820.2 290.1 820.8 292.3L825.2 314 812.5 309.8C810.6 309.2 808.8 310.7 808.4 311.9 807.8 313.7 808.7 315.3 810.5 315.9L826.9 321.2 830.1 338.4 797.2 327.8C795.4 327.2 793.8 328 793.2 329.8 792.8 331 793.4 333.3 795.3 333.9L831.8 345.7 837.5 371.7 809.9 359.4 819.4 388.1 793.9 379.8 785.8 342.2C785.2 340 783.4 339.4 782 339.6 780.5 339.9 779.3 341.5 779.4 343.5L787.2 377.6 770.7 372.3 766.7 355.6C766.7 353.5 765.1 352.3 762.9 353 761.4 353.2 760.2 354.8 760.9 357L763.4 370 742.1 363.1C740.3 362.5 738.7 363.3 738.1 365.1S738.3 368.6 740.1 369.2L761.4 376.1 751.8 385C750 386.5 750 388.5 751 389.5 752.5 391.3 754.5 391.3 755.7 389.7L768.8 378.4 785.2 383.7 758.9 406.8C757.7 408.5 757.7 410.5 758.7 411.5 760.2 413.3 762.2 413.3 763.4 411.7L791.9 385.9 817.5 394.2 792.9 411.8 822.5 418 802.7 435.8 766.1 424C764.3 423.4 762.5 424.8 762.1 426 761.5 427.9 762.3 429.5 764.2 430.1L797.6 440.9 784.4 452.8 768 447.4C766.1 446.8 764.5 447.7 763.9 449.5 763.5 450.7 764.2 452.9 766 453.5L778.8 457.7 762.5 472.6C760.7 474 760.7 476 762.4 477.2 763.4 478.2 765.2 478.8 766.4 477.2L783.3 462.5 786.4 475.6C786.6 477 788.3 478.2 789.7 478 791.1 477.8 792.1 476.8 792.3 476.2 792.5 475.6 792.7 474.9 792.3 474.1L788.9 457.6 801.5 445.5 808.5 480.1C809.3 481.7 811 482.9 812.4 482.7 813.8 482.4 814.8 481.4 815.2 480.2 815.4 479.6 815.4 479.6 815 478.8L807.2 440.6 827 422.8 829.9 453.4 850.2 430.3 855.9 456.4 827.2 482.7C826.2 483.8 825.6 485.6 827 487.4 828 488.4 830.1 488.4 831.7 487.5L857.6 463.6 860.7 480.8 848.3 492.3C846.7 493.1 846.7 495.1 848.1 496.9 849.2 497.9 851.2 497.9 852.8 497.1L862.4 488.1 867.5 509.9C867.5 511.9 869.3 512.5 871.4 512.5 872.2 512.1 873.2 511.1 873.4 510.4 873.6 509.8 873.8 509.2 873.3 508.4L868.9 486.8 881.7 490.9C883.5 491.5 885.3 490.1 885.7 488.9L885.7 488.9C886.3 487.1 885.5 485.4 883.7 484.9L867.2 479.5 864 462.4 896.9 473C898.7 473.6 900.3 472.8 900.9 470.9S900.7 467.5 898.9 466.9L862.3 455.1 856.6 429 884.3 441.3 874.7 412.7 900.3 421 908.3 458.5C908.9 460.7 910.8 461.3 912.2 461.1 913.6 460.9 914.8 459.3 914.8 457.3L907.6 423.3 923.4 428.4 927.4 445.2C927.4 447.2 929.1 448.4 931.3 447.8 932.7 447.6 933.9 445.9 933.9 443.9L930.7 430.8 952 437.7C953.9 438.3 955.5 437.5 956.1 435.6S955.8 432.2 954 431.6L932.7 424.7 942.3 415.7C943.1 415.3 943.3 414.7 943.5 414.1 943.9 412.9 943.5 412.1 943.1 411.3 941.7 409.4 939.6 409.5 938.4 411.1L925.4 422.3 909 417 935.3 393.9C935.5 393.3 935.7 392.7 935.8 392.1 936.2 390.9 935.8 390.1 935.4 389.3 934 387.5 932 387.5 930.8 389.1L902.3 414.9 876.7 406.6 901.2 389 871.6 382.8 891.5 365 928 376.8C929.8 377.4 931.7 375.9 932 374.7 932.6 372.9 931.8 371.3 930 370.7L897.1 360.1 909.7 348 926.2 353.3C928 353.9 929.6 353.1 930.2 351.3S930 347.8 928.2 347.2L915.4 343.1 931.6 328.2C932.4 327.8 932.6 327.2 932.8 326.5 933 325.9 932.8 324.5 931.8 323.5 930.8 322.5 928.9 321.9 927.7 323.6ZM886.1 392.1L866 406.5 873.9 429.9 850.9 419.8 834.9 438.1 832 413.7 808.1 408.6 828.2 394.3 820.3 370.9 842.6 380.8 859.3 362.6 861.5 386.9 886.1 392.1Z" fill="rgba(51, 121, 194, 0.58)"></path><path d="M661.6 629.7L684.3 607.3 696 607.6 688.3 615.2C687.2 615.8 687.5 617 688.1 618 688.8 618.5 690.2 618.7 690.7 617.9L701.5 607.7 713 607.7 707 617.5 692.5 621.1C692.5 621.1 692.2 621.3 692.2 621.3 691.5 621.6 691.2 622.7 691.2 623.6 691.8 624.7 692.5 625.2 693.8 624.9L704.2 622.3 698.2 632.1 667.5 640.2C667.5 640.2 666.9 640 666.9 640 666.2 640.4 665.9 641.5 666 642.4 666.2 643.6 667.5 644.3 668.5 643.7L695.4 636.9 688.5 649 676.5 652.1C676.5 652.1 676.5 652.1 676.1 652.3 675.4 652.7 674.9 653.4 675 654.3 675.5 655.4 676.5 656.2 677.7 656L685.7 653.8 680.6 662.7C679.7 663.6 680.3 664.6 681 665.1 682 666 683.2 665.7 683.9 664.5L689.2 656 690.8 663.8C691.4 664.8 692.3 665.7 693.4 665.1 694.6 664.8 695.1 664.1 694.9 662.8L691.8 650.8 698.9 639 706 666.2C706 667.1 707.3 667.8 708.6 667.6 709.3 667.2 710.1 666.2 709.9 665L701.7 634.2 707.7 624.4 710.4 634.9C710.6 636.1 711.7 636.4 712.9 636.2 713.8 636.1 714.5 634.9 714.4 634L710.5 619.6 716.3 609.5 722 619.6 718 633.8C717.7 634.9 718.3 635.9 719.4 636.2 720.1 636.7 721.5 635.9 721.8 634.9L724.7 624.5 730.4 634.6 721.5 665.3C721.2 666.4 721.8 667.4 722.9 667.8 724 668.1 725 667.5 725.3 666.4L733.2 639.5 739.8 651.3 736.5 663.3C736.2 664.4 736.8 665.5 737.8 665.8 738.9 666.1 740 665.5 740.3 664.4L742.8 656.6 747.7 665.3C748.3 666.3 749.3 666.6 750.4 666.1 751.4 665.5 751.7 664.4 751.2 663.3L746.3 654.6 753.9 656.8C755 657.1 756 656.5 756.3 655.4S756 653.2 754.9 652.9L743.5 649.7 736.6 637.5 763.3 645C764.4 645.3 765.5 644.7 765.8 643.6 766.1 642.6 765.5 641.5 764.4 641.2L733.9 632.7 728.2 622.5 738.6 625.4C739.7 625.7 740.7 625.2 741 624.1 741.3 623 740.7 621.9 739.6 621.6L725.5 617.7 720 607.9 731.1 608.1 741.6 618.7C742.4 619.2 743.8 619.3 744.3 618.5 745.2 617.6 745.1 616.7 744.5 615.7L737 608 748.1 608.1 770.5 630.9C771.5 631.7 772.4 631.7 773.4 631.1 774.3 630.2 774 628.9 773.6 628.2L754 608 768 608.4 776.5 617C777.1 618 778.3 617.8 779.4 617.2 779.9 616.4 780 615 779 614.2L773.6 608.5 783.6 608.4C784.7 608.7 785.5 607.8 785.6 606.3 785.6 605.4 784.7 604.6 783.8 604.6L773.5 604.4 779.5 598.7C780.4 597.8 780.1 596.6 779.4 596.1 778.8 595 777.9 595.1 777.2 595.4 776.9 595.6 776.9 595.6 776.5 595.8L768 604.3 754 603.9 773.8 584.5C774.9 583.9 774.6 582.7 774 581.6 773.3 581.1 772.4 581.2 771.7 581.6 771.4 581.8 771.4 581.8 771.4 581.8L748.1 604 737 603.8 744.7 596.3C745.5 595.4 745.5 594.5 744.9 593.4 744.1 592.9 743.1 592.6 742.4 593 742 593.2 742 593.2 741.7 593.4L731.1 604 720 603.8 725.6 594.2 739.9 590.3C741.1 590 741.8 588.7 741.8 587.9 741.2 586.8 740.2 586 739.2 586.5L728.7 589.2 734.2 579.3 765.5 571.3C766.4 571.3 767 570 767 569.1 766.4 568 765.5 567.2 764.2 567.4L737.3 574.3 744.5 562.5 756.1 559.6C757.4 559.3 758 558 757.4 557 757.4 556.1 756.5 555.3 755.2 555.5L747.3 557.7 752.4 548.8C752.9 548.1 752.7 546.8 751.7 546 751.2 545.8 750.3 545.9 749.6 546.3 749.6 546.3 749.2 546.5 748.9 546.7L743.8 555.5 741.6 547.6C741.5 546.7 740.3 546 739.4 546.1 739 546.3 739 546.3 739 546.3 738 546.8 737.7 547.9 738.1 548.6L741 560.3 734 572.5 727 545.2C726.4 544.2 725.6 543.7 724.4 543.9 724.4 543.9 724 544.1 724 544.1 723.3 544.5 722.8 545.3 723.1 546.5L730.9 577.5 725.2 587 722.6 576.6C722 575.6 721.1 574.7 720 575.3 719.8 575 719.5 575.1 719.5 575.1 718.8 575.5 718.5 576.6 718.5 577.5L722.4 591.8 716.5 601.6 711 591.9 714.9 577.7C715.2 576.6 714.5 575.2 713.4 574.9 712.5 575 711.4 575.5 710.9 576.3L708.2 587 702.5 576.9 711.1 546.4C711.4 545.3 710.8 544.2 709.7 543.9 708.6 543.6 707.6 544.2 707.3 545.3L699.8 572 692.9 559.8 696.1 548.3C696.4 547.3 695.8 546.2 694.8 545.9S692.6 546.2 692.3 547.3L690.2 554.9 685.3 546.2C684.7 545.1 683.6 544.8 682.6 545.4 681.5 546 681.2 547.1 681.8 548.1L686.7 556.9 678.7 554.9C678.2 554.8 677.6 554.6 677.3 554.8 676.9 555 676.4 555.8 676.3 556.3 676 557.4 676.6 558.4 677.7 558.7L689.4 561.7 696.3 573.9 669.3 566.7C668.7 566.5 668.2 566.4 667.8 566.6 667.5 566.8 667 567.5 666.8 568 666.5 569.1 667.1 570.2 668.2 570.5L699 578.8 704.7 588.9 694.2 585.7C693.6 585.5 692.9 585.9 692.6 586.1 692.2 586.3 691.9 586.5 691.7 587.1 691.4 588.2 692.2 589.5 693.1 589.5L707.5 593.8 713 603.6 701.5 603.6 691.3 592.8C690.6 592.3 689.5 592 688.8 592.4 688.4 592.6 688.4 592.6 688.6 592.9 687.6 593.5 687.5 595 688.4 595.8L695.9 603.5 684.5 603.5 662.2 580.3C661.5 579.8 660.6 579.8 659.9 580.2 659.5 580.4 659.5 580.4 659.5 580.4 658.7 581.3 658.4 582.4 659.3 583.3L678.9 603.4 664.9 603.1 656.5 594.5C655.5 593.7 654.6 593.7 653.9 594.1 653.9 594.1 653.6 594.3 653.6 594.3 652.7 595.2 653 596.5 653.4 597.2L659.4 603 649.2 602.7C648.8 602.9 648.5 603.1 648.1 603.3 647.8 603.5 647.3 604.3 647.1 604.8 647.4 606.1 647.9 607.1 649.2 606.9L659.4 607.1 653.4 612.7C652.6 613.7 652.8 614.9 653.2 615.6 654.1 616.5 655.4 616.2 656.4 615.6L665 607.2 678.8 607.2 658.9 626.6C658.1 627.6 658 629 658.7 629.5 659.6 630.4 660.7 630.7 661.6 629.7Z" fill="rgba(51, 121, 194, 0.58)"></path><path d="M1330.1 83.4L1318.9 84.3 1321.5 78.1C1321.9 77.5 1321.6 76.5 1320.8 75.9 1319.9 75.7 1318.9 76 1318.8 76.9L1315.2 84.6 1306.5 85.7 1314 69.7C1314.1 68.8 1313.8 67.9 1313.2 67.5 1312.1 67.1 1311.1 67.4 1311 68.3L1302.8 86 1289.5 87.3 1297.4 74.1 1282.5 77.4 1287.9 65.2 1307.3 63.1C1307.5 63.4 1307.7 63.2 1308 63 1308.5 62.6 1308.8 62 1308.7 61.3 1308.6 60.6 1307.8 60 1306.9 59.8L1289.4 61.8 1293.2 53.9 1301.6 53C1302 53.1 1302.3 52.9 1302.6 52.7 1302.8 52.5 1303.2 51.9 1303 51.2 1302.9 50.5 1302.1 49.9 1301.4 50L1294.7 50.5 1299.1 40.2C1299.7 39.4 1299.2 38.6 1298.3 38 1297.7 37.7 1296.7 38 1296.3 39.1L1291.7 49.1 1287.8 43.6C1287.2 42.8 1286.1 42.9 1285.5 43.3 1284.8 43.8 1284.6 44.7 1285.2 45.5L1290.2 52.5 1286.4 60.4 1276.3 46.3C1275.8 45.5 1274.9 45.4 1274.1 46 1273.6 46.3 1273.2 47.4 1273.7 48.2L1284.9 63.8 1279.5 76 1272 62.8 1267.3 77.2 1259.5 66.3 1267.4 48.8C1267.8 47.7 1267.3 46.9 1266.7 46.6 1266 46.2 1265.1 46.5 1264.5 47.4L1257.5 63.4 1252.4 56.4 1255.8 48.5C1256.4 47.6 1256.1 46.7 1255 46.3 1254.4 45.9 1253.4 46.2 1253 47.3L1250.2 53.3 1243.7 44.2C1243.1 43.4 1242.2 43.2 1241.4 43.8S1240.5 45.2 1241.1 46L1247.6 55.1 1241 55.9C1239.9 55.9 1239.3 56.7 1239.4 57.5 1239.4 58.6 1240.3 59.2 1241.2 58.9L1249.8 58.2 1254.9 65.3 1237.4 66.8C1236.5 67.1 1235.9 67.9 1236 68.6 1236 69.7 1236.8 70.3 1237.8 70L1256.9 68.1 1264.7 79.1 1249.6 78.9 1259.7 90.1 1246.4 91.4 1235.2 75.8C1234.7 75 1233.5 75.1 1233 75.4 1232.2 76 1232.1 76.9 1232.6 77.7L1242.9 92 1234 92.8 1229 85.8C1228.5 85 1227.6 84.9 1226.8 85.4 1226.3 85.8 1225.9 86.9 1226.4 87.6L1230.3 93.1 1219.4 94.3C1218.2 94.3 1217.6 95.1 1217.9 96.1 1218 96.8 1218.6 97.6 1219.5 97.3L1230.7 96.4 1228.1 102.6C1227.7 103.2 1228 104.2 1228.7 104.5 1229.3 104.9 1230 104.7 1230.3 104.6 1230.5 104.4 1230.8 104.2 1230.9 103.7L1234.4 96.1 1243.1 95 1235.6 111C1235.5 111.8 1235.8 112.8 1236.4 113.1 1237.1 113.5 1237.8 113.4 1238.3 113 1238.6 112.8 1238.6 112.8 1238.6 112.4L1246.8 94.7 1260.1 93.4 1252.2 106.6 1267.2 103.3 1261.7 115.5 1242.4 117.6C1241.6 117.7 1240.9 118.2 1240.9 119.4 1241 120.1 1241.8 120.7 1242.7 120.8L1260.2 118.9 1256.4 126.8 1248 127.7C1247.1 127.5 1246.5 128.3 1246.6 129.5 1246.7 130.2 1247.5 130.8 1248.4 130.9L1255 130.2 1250.5 140.5C1249.9 141.3 1250.5 142.1 1251.3 142.7 1251.7 142.7 1252.4 142.6 1252.7 142.4 1253 142.2 1253.2 142.1 1253.3 141.6L1257.9 131.6 1261.8 137.1C1262.4 137.8 1263.6 137.8 1264.1 137.4L1264.1 137.4C1264.9 136.9 1265 136 1264.4 135.2L1259.4 128.2 1263.2 120.3 1273.3 134.3C1273.9 135.1 1274.8 135.3 1275.5 134.7S1276.5 133.3 1275.9 132.5L1264.7 116.9 1270.2 104.7 1277.6 117.9 1282.3 103.5 1290.1 114.4 1282.2 131.9C1281.8 133 1282.3 133.8 1283 134.1 1283.6 134.4 1284.6 134.1 1285.2 133.3L1292.4 117.5 1297.2 124.3 1293.8 132.2C1293.2 133 1293.5 134 1294.6 134.4 1295.2 134.8 1296.2 134.5 1296.8 133.6L1299.4 127.4 1306 136.5C1306.5 137.3 1307.4 137.4 1308.2 136.9S1309.1 135.4 1308.6 134.7L1302 125.6 1308.6 124.8C1309 124.9 1309.3 124.7 1309.5 124.5 1310.1 124.1 1310.1 123.7 1310.2 123.2 1310.2 122.1 1309.4 121.5 1308.4 121.8L1299.8 122.4 1294.8 115.4 1312.2 113.9C1312.5 113.7 1312.7 113.6 1313 113.4 1313.5 113 1313.6 112.5 1313.7 112.1 1313.6 110.9 1312.8 110.4 1311.8 110.7L1292.7 112.5 1284.9 101.6 1300 101.8 1289.9 90.5 1303.2 89.3 1314.4 104.9C1314.9 105.7 1316.1 105.6 1316.6 105.2 1317.4 104.7 1317.5 103.8 1317 103L1306.9 89 1315.6 87.9 1320.6 94.9C1321.2 95.7 1322.1 95.8 1322.8 95.3S1323.8 93.8 1323.2 93L1319.3 87.6 1330.3 86.4C1330.7 86.5 1331 86.3 1331.2 86.1 1331.5 85.9 1331.8 85.3 1331.7 84.6 1331.6 83.9 1331 83.1 1330.1 83.4ZM1292.9 98.6L1280.6 98.4 1276.8 110.2 1270.6 99.3 1258.7 101.9 1264.8 91.2 1256.7 82.1 1269 82.3 1272.8 70.5 1278.8 81.1 1290.9 78.8 1284.6 89.2 1292.9 98.6Z" fill="rgba(51, 121, 194, 0.58)"></path><path d="M1319.1 340.2L1353.9 320.8 1388 330.7 1362.4 355.3 1322.6 354.2C1322.6 354.2 1322.1 354.3 1322.1 354.3 1321.2 354.5 1320.5 355.7 1320.2 356.7 1320.1 358.3 1321.4 359.4 1322.8 359.1L1357.6 359.9 1345.2 371.9 1329.8 371.7C1329.8 371.7 1329.4 371.8 1329.4 371.8 1328.4 372 1327.7 373.2 1327.5 374.2 1327.4 375.7 1328.6 376.9 1330 376.6L1340.5 377 1331.3 385.7C1330.5 386.4 1330.5 388.3 1331.2 389.1 1332 390.4 1333.8 390 1334.7 389.3L1343.9 380.6 1343.5 391.1C1343.4 392.6 1344.7 393.7 1346.1 393.4 1347.6 393.5 1348.7 392.2 1348.4 390.8L1348.6 375.5 1361.1 364 1360.2 398.8C1360.1 400.3 1361.4 401.5 1362.8 401.1 1364.3 401.3 1365.5 400 1365.1 398.6L1366.2 358.8 1391.8 334.2 1400.4 369.1 1379.7 403.4C1379 404.6 1379.3 406 1380.5 406.7 1381.6 407.4 1383 407 1383.7 405.9L1402 375.7 1406.1 392.4 1398.4 405.2C1397.7 406.4 1398 407.8 1399.2 408.5 1400.4 409.2 1401.8 408.8 1402.5 407.7L1407.7 399 1410.9 412C1410.8 413.5 1412.5 414.1 1413.8 413.8 1415.2 413.4 1415.9 412.3 1415.6 410.9L1412.6 398.8 1421.3 404C1422.5 404.7 1423.9 404.4 1424.6 403.2S1425 400.7 1423.8 400L1411 392.2 1406.9 375.5 1437.1 393.7C1438.2 394.4 1439.6 394.1 1440.4 392.9 1441.1 391.8 1440.7 390.4 1439.5 389.7L1405.3 368.9 1396.8 334.4 1430.9 344.3 1449.6 378.3C1450.4 379.6 1451.9 379.7 1453.3 379.3 1454.6 378.5 1454.7 377 1454.4 375.6L1437.5 345.2 1454 350 1461.3 363.5C1462.1 364.8 1463.6 364.9 1465 364.6 1466.3 363.8 1466.4 362.3 1466.2 361.3L1461 352.2 1473.2 355.7C1474.2 355.9 1476.1 355.4 1476.2 353.9 1476.4 352.4 1476 351 1474.5 350.9L1462.3 347.5 1471.4 342.3C1472.7 341.5 1472.8 339.9 1472.6 339 1471.9 338.2 1470.7 337.5 1469.8 337.7 1469.8 337.7 1469.3 337.8 1469.3 337.8L1455.8 345.1 1439.3 340.3 1469.7 323.4C1471 322.6 1471.1 321.1 1470.9 320.1 1470.2 319.3 1469 318.6 1468.1 318.9 1468.1 318.9 1467.6 319 1467.6 319L1432.9 338.4 1398.8 328.5 1424.4 303.9 1464.2 305C1465.7 305.1 1466.9 303.8 1466.5 302.4 1466.6 300.9 1465.4 299.8 1464 300.1L1429.2 299.3 1441.5 287.3 1456.9 287.5C1458.4 287.6 1459.6 286.3 1459.2 284.9 1459.4 283.4 1458.1 282.3 1456.7 282.6L1446.2 282.2 1455.4 273.5C1456.3 272.8 1456.3 270.9 1455.6 270 1454.9 269.2 1453.8 269 1452.9 269.2 1452.4 269.3 1452 269.4 1451.6 270L1442.4 278.7 1442.8 268.2C1442.9 266.7 1441.6 265.6 1440.2 265.9 1440.2 265.9 1439.8 266 1439.8 266 1438.8 266.2 1438.1 267.4 1437.9 268.5L1437.7 283.8 1425.3 295.8 1426.2 261C1426.3 259.5 1425 258.3 1423.6 258.6 1423.6 258.6 1423.1 258.7 1423.1 258.7 1422.2 259 1421.5 260.1 1421.3 261.2L1420.2 301 1394.6 325.6 1386.1 291.1 1406.8 256.8C1407.5 255.7 1407.2 254.3 1406 253.6 1404.9 252.9 1403.5 253.2 1402.8 254.4L1384.4 284.1 1380.3 267.3 1388 254.5C1388.7 253.4 1388.4 252 1387.2 251.3S1384.6 250.9 1383.9 252.1L1378.7 260.8 1375.7 248.7C1375.3 247.3 1374.2 246.6 1372.8 246.9 1371.4 247.3 1370.7 248.4 1371 249.8L1374 261.9 1365.3 256.7C1364.7 256.3 1364.1 256 1363.2 256.2S1361.9 257 1361.6 257.6C1360.9 258.8 1361.2 260.1 1362.4 260.9L1375.1 268.6 1379.3 285.4 1349.1 267.1C1348.5 266.7 1347.9 266.4 1347 266.6 1346.5 266.7 1345.7 267.4 1345.3 268 1344.6 269.2 1345 270.6 1346.1 271.3L1380.4 292 1388.9 326.5 1354.8 316.6 1335.4 281.8C1334.7 281 1333.5 280.3 1332.6 280.5 1332.6 280.5 1332.1 280.6 1332.1 280.6 1330.9 281.5 1330.7 283 1331 283.9L1347.8 314.4 1331.3 309.5 1324 296C1323.4 295.2 1322.2 294.5 1321.3 294.7 1321.3 294.7 1320.8 294.8 1320.8 294.8 1319.5 295.6 1319.4 297.1 1319.6 298.1L1324.8 307.2 1312.6 303.7C1312.1 303.9 1311.6 303.5 1311.1 303.6 1310.2 303.9 1309.3 304.5 1309.1 305.6 1309 307.1 1309.3 308.5 1310.8 308.6L1323.1 312 1314 317.3C1312.7 318.1 1312.6 319.6 1312.8 320.5 1313.6 321.8 1315.1 321.9 1316 321.7L1329.6 314.4 1346.1 319.2 1315.6 336.1C1314.4 336.9 1314.2 338.4 1314.5 339.4 1316.2 340.4 1317.8 341 1319.1 340.2Z" fill="rgba(51, 121, 194, 0.58)"></path><path d="M140.4 395.4L139.5 427.3 130.8 435.1 131.2 424.3C131.5 423.2 130.5 422.4 129.3 422.1 128.4 422.2 127.3 423.1 127.5 424L126.7 438.8 118.4 446.8 116 435.6 124 423C124 423 124.2 422.6 124.2 422.6 124.4 421.8 123.9 420.8 123.2 420.2 122.1 419.9 121.2 420 120.4 421L114.7 430.2 112.3 419 129 391.8C129 391.8 129.5 391.6 129.5 391.6 129.7 390.8 129.2 389.8 128.5 389.2 127.5 388.5 126.1 388.9 125.8 390L111 413.5 107.7 400 114.2 389.4C114.2 389.4 114.2 389.4 114.3 389 114.6 388.3 114.4 387.4 113.8 386.8 112.6 386.4 111.4 386.5 110.6 387.5L106.4 394.6 104 384.6C104 383.4 102.8 383 101.9 383.1 100.7 383.2 99.9 384.2 100.3 385.6L102.4 395.4 95.8 390.9C94.6 390.5 93.4 390.6 93 391.7 92.3 392.7 92.4 393.6 93.5 394.4L104 400.9 107 414.4 83.1 399.6C82.4 398.9 81.1 399.3 80.3 400.4 80.1 401.1 80.1 402.4 81.2 403.1L108.3 419.8 110.7 431 101.6 425.3C100.5 424.6 99.5 425.1 98.8 426.1 98.2 426.8 98.6 428.1 99.3 428.8L112 436.4 114.8 447.7 103.7 444.3 96.8 431.4C96.3 430.4 95.1 430 94.1 430.5 93.2 430.7 92.8 432.2 93.3 433.2L98.3 442.7 87.2 439.3 72.5 410.9C72 409.9 70.8 409.6 69.8 410.1 68.8 410.7 68.5 411.8 69 412.8L81.9 437.7 68.9 433.7 63 422.7C62.5 421.7 61.4 421.3 60.4 421.9 59.4 422.4 59 423.5 59.5 424.5L63.1 431.9 53.6 429C52.4 428.6 51.4 429.2 51.1 430.3 50.7 431.5 51.3 432.5 52.4 432.8L62 435.8 55 439.5C54 440 53.6 441.1 54.2 442.1S55.8 443.5 56.8 443L67.3 437.4 80.7 441.5 56.2 454.5C55.2 455 54.9 456.2 55.4 457.2 55.9 458.2 57.1 458.5 58.1 458L86.1 443.1 97.2 446.5 87.7 451.6C86.7 452.1 86.3 453.2 86.8 454.2 87.4 455.2 88.5 455.6 89.5 455.1L102.5 448.2 113.2 451.4 105.1 459 90.1 458.6C89.2 458.7 88.1 459.7 88.3 460.5 88.3 461.8 88.9 462.4 90.1 462.8L100.9 463.1 92.7 470.7 60.8 469.7C59.5 469.7 58.9 470.4 58.5 471.5 58.6 472.8 59.6 473.5 60.4 473.7L88.5 474.8 78.1 484.2 66.1 483.9C64.9 483.5 64.2 484.5 63.8 485.7 64 486.6 64.9 487.7 66.2 487.7L74 488 66.8 495C65.8 495.5 65.9 496.8 66.8 497.9 67.4 498.5 68.7 498.5 69.3 497.8L76.9 490.9 76.4 499.2C76.5 500.4 77.5 501.2 78.4 501 79.5 501.4 80.1 500.7 80.4 500 80.5 499.6 80.5 499.6 80.6 499.2L80.9 487.2 91.3 477.8 90.4 505.5C90 506.7 91.1 507.4 92.2 507.8 93.1 507.6 93.7 507 93.9 506.2 94.1 505.8 94.1 505.8 94.1 505.8L95.5 473.6 103.7 466.1 103.3 476.9C103.4 478.1 104 478.8 105.2 479.1 106 479 107 478.4 107.3 477.7 107.4 477.3 107.4 477.3 107.5 476.9L107.9 462 116.1 454.4 118.6 465.2 111 477.9C110.2 479 110.6 480.4 111.3 481 112.4 481.3 113.7 481.3 114 480.2L119.8 471 122.7 482 105.5 509.3C104.9 510 105.3 511.4 106 512 107.1 512.3 108.4 512.3 109.1 511.3L123.9 487.8 126.8 501.2 120.4 511.4C119.6 512.4 120.1 513.8 121.2 514.1 121.9 514.8 123.1 514.7 123.9 513.7L128.1 506.6 130.5 516.6C130.7 517.4 131.7 518.2 132.9 518.2 133.4 517.9 134.1 517.2 134.3 516.5 134.3 516.5 134.4 516.1 134.5 515.7L132.1 505.8 139.2 510C139.8 510.6 141.2 510.2 141.8 509.6 142 509.2 142 509.2 142 509.2 142.3 508.1 141.8 507.1 141 506.8L130.9 500.4 127.5 486.8 151.4 501.6C152.5 502 153.4 501.8 154.2 500.8 154.2 500.8 154.3 500.4 154.3 500.4 154.5 499.7 154.4 498.8 153.3 498L126.3 481 123.8 470.2 132.9 475.9C134.1 476.2 135.3 476.2 135.7 475.1 136.1 475.2 136.2 474.8 136.2 474.8 136.4 474 135.9 473 135.2 472.4L122.5 464.8 120.1 453.6 130.8 456.8 137.7 469.8C138.2 470.8 139.8 471.3 140.8 470.8 141.4 470.1 141.7 469 141.6 468.1L136.2 458.5 147.3 461.9 162.1 489.9C162.6 490.9 163.8 491.2 164.8 490.7 165.8 490.1 166.1 489 165.6 488L152.6 463.5 166 467.6 171.6 478.1C172.1 479.1 173.2 479.5 174.2 478.9S175.6 477.2 175.1 476.2L171.4 469.3 180.9 472.2C182.1 472.5 183.1 472 183.4 470.9 183.8 469.7 183.2 468.7 182.1 468.4L172.5 465.4 179.6 461.3C180.1 461.1 180.6 460.8 180.8 460.4 180.9 460 180.7 459.2 180.5 458.7 179.9 457.7 178.8 457.3 177.8 457.8L167.2 463.8 153.8 459.7 178.4 446.3C178.9 446 179.4 445.8 179.5 445.4 179.6 445 179.5 444.1 179.2 443.6 178.7 442.6 177.5 442.3 176.5 442.8L148.4 458.1 137.3 454.7 147.2 449.7C147.7 449.5 147.9 448.7 148.1 448.3 148.2 447.9 148.3 447.6 148 447.1 147.5 446.1 146 445.6 145.4 446.2L132 453 121.3 449.7 129.6 441.8 144.4 442.6C145.3 442.4 146.3 441.9 146.5 441.1 146.6 440.8 146.6 440.8 146.2 440.6 146.6 439.5 145.7 438.4 144.4 438.4L133.6 438 141.9 430.1 174.1 431.6C175 431.5 175.6 430.8 175.8 430 175.9 429.7 175.9 429.7 175.9 429.7 175.9 428.4 175.4 427.4 174.1 427.4L146 426.4 156.4 417 168.4 417.3C169.7 417.3 170.3 416.6 170.5 415.9 170.5 415.9 170.7 415.5 170.7 415.5 170.6 414.2 169.6 413.5 168.8 413.3L160.5 413.2 168 406.3C168.2 405.9 168.3 405.6 168.4 405.2 168.5 404.8 168.4 403.9 168.1 403.4 167.1 402.7 165.9 402.3 165.2 403.4L157.6 410.2 158.1 402C158 400.8 157 400 156.2 399.8 155 399.8 154.2 400.8 153.9 402L153.5 414 143.5 423.5 144.5 395.8C144.5 394.5 143.6 393.4 142.7 393.5 141.4 393.6 140.4 394.1 140.4 395.4Z" fill="rgba(51, 121, 194, 0.58)"></path><path d="M1154.9 343.8L1115.3 341.1 1107.9 333 1115.7 309.8 1126.7 307.4 1159.6 329.7C1160.1 329.9 1160.1 329.9 1160.6 330.1 1161.5 330.4 1162.5 330.2 1163.4 329 1163.9 327.6 1163.8 326.6 1162.5 325.7L1133.6 306.3 1150.5 302.8 1163.4 311.2C1163.4 311.2 1163.8 311.4 1163.8 311.4 1164.7 311.7 1165.8 311.6 1166.7 310.4 1167.5 309.6 1167 307.9 1165.8 307L1157.7 301.2 1170.1 298.8C1171.2 298.7 1172.1 297.5 1172.1 296S1170.3 293.8 1168.8 293.8L1156.8 296.3 1162.1 288C1163 286.8 1162.6 285.1 1161.4 284.2 1160.5 283.9 1158.9 283.9 1158 285.1L1149.6 298 1132.3 301.2 1151.7 272.3C1152.6 271.1 1152.2 269.5 1151.4 268.7 1150.1 268.2 1148.5 268.2 1147.6 269.4L1125.8 302.6 1114.4 304.8 1098.7 286.8 1102.4 275.9 1137.8 258C1139 257.4 1139.5 256 1138.9 254.8S1136.9 253.1 1135.7 253.7L1104.5 269.5 1110.2 252.7 1123.6 246.1C1124.8 245.5 1125.3 244.1 1124.8 242.5S1122.9 240.8 1121.6 241.4L1112.4 246.3 1116.5 234.1C1117 232.7 1115.9 231.3 1114.6 230.9 1113.2 230.4 1112 231 1111.5 232.4L1107.4 244.7 1102.9 235.5C1102.4 233.9 1101 233.4 1099.7 234.4 1098.5 235.1 1098 236.4 1098.6 237.6L1105.2 251 1099.5 267.8 1084.3 236.4C1083.7 235.1 1081.9 234.5 1080.7 235.1S1079 237.1 1079.6 238.3L1097.4 274.2 1093.7 285.1 1069.8 289.7 1062.6 281.2 1065.3 241.6C1065.3 240.1 1064.1 239.1 1062.8 238.7 1061.2 238.7 1060.3 239.9 1059.9 241.2L1057.7 276 1046.4 263 1047.5 247.7C1047.6 246.2 1046.3 245.3 1045 244.8 1043.9 245 1042.5 246 1042.5 247.5L1041.7 257.4 1033.3 248C1032.5 247.2 1031 247.2 1029.8 247.8 1028.9 249 1028.9 250.5 1029.6 251.3L1038.1 260.7 1027.6 260.2C1026.5 260.4 1025.2 261.4 1025.3 262.5 1024.9 263.9 1025.6 264.6 1027 265.1 1027 265.1 1027.4 265.2 1027.4 265.2L1042.8 266.4 1054.1 279.3 1019.3 277.2C1017.8 277.2 1016.6 277.8 1016.6 279.3 1016.6 280.8 1017.3 281.6 1018.2 281.9 1018.7 282 1018.7 282 1018.7 282L1058.9 284.5 1066.2 293 1058.3 316.2 1047.5 318.1 1013.9 296.1C1013.2 295.4 1011.5 295.8 1010.7 296.6 1009.8 297.8 1010.3 299.5 1011.5 300.4L1040.4 319.8 1023.5 323.2 1010.7 314.8C1009.4 313.9 1007.9 313.9 1007.5 315.2 1006.5 316.4 1007 318.1 1007.8 318.9L1016.5 324.4 1004.1 326.8C1002.9 327.4 1001.9 328.6 1001.9 330.1 1002.2 330.7 1003 331.5 1003.9 331.8 1004.4 331.9 1004.4 331.9 1005 331.6L1017.4 329.2 1011.9 338C1011 339.2 1011.6 340.4 1012.4 341.2 1012.8 341.4 1012.8 341.4 1013.3 341.5 1014.2 341.8 1015.2 341.7 1016 340.9L1024.4 328.1 1041.3 324.6 1021.9 353.5C1021.4 354.9 1021.4 356.4 1022.8 356.9 1023.1 357.5 1023.1 357.5 1023.5 357.7 1024.4 358 1025.6 357.4 1026.4 356.6L1048.4 323 1059.2 321.1 1075.4 339.2 1071.8 349.7 1035.9 367.4C1034.7 368 1034.1 369.8 1034.7 371.1S1037.1 372.9 1038.3 372.3L1069.5 356.5 1064 372.9 1050.4 379.9C1049.2 380.5 1048.7 381.9 1049.3 383.1 1049.9 384.3 1051.3 384.8 1052.5 384.2L1061.7 379.7 1057.5 392C1057.2 392.9 1057.6 394.5 1059 395 1060.4 395.5 1062.2 394.6 1062.5 393.7L1066.7 381.4 1071.2 390.5C1071.5 391.1 1071.8 391.7 1072.2 391.9 1073.1 392.2 1073.7 391.9 1074.4 391.6 1075.6 391 1076 389.6 1075.4 388.4L1069 374.6 1074.5 358.2 1089.7 389.7C1090 390.3 1090.4 390.4 1091.4 390.8 1091.8 390.9 1092.3 391.1 1092.9 390.8 1094.1 390.2 1094.7 388.3 1094.1 387.1L1076.8 351.4 1080.4 340.9 1103.8 336.2 1111.6 344.4 1108.7 384.5C1108.8 385.5 1109.4 386.7 1110.3 387 1110.8 387.2 1110.8 387.2 1111 386.7 1112.3 387.2 1113.7 386.2 1113.7 384.6L1115.8 349.9 1127.6 363 1126.5 378.3C1126.6 379.4 1127.4 380.1 1128.3 380.5 1128.3 380.5 1128.7 380.6 1128.7 380.6 1130.1 381.1 1131.5 380 1131.5 378.5L1132 368 1140.4 377.5C1140.7 378.1 1141.2 378.2 1141.7 378.4 1142.6 378.7 1143.6 378.6 1143.8 378.1 1145.2 377 1145.2 375.5 1144.6 374.3L1136.1 364.9 1146 365.7C1147.5 365.7 1148.9 364.6 1148.9 363.1 1148.7 362 1147.7 360.7 1146.6 360.8L1131.3 359.7 1119.9 346.7 1154.7 348.9C1156.2 348.9 1157.1 347.6 1157.6 346.3 1157.4 345.2 1156.4 343.8 1154.9 343.8ZM1109.8 310.8L1103.8 328.6 1102.9 331.3 1100.1 331.9 1082.2 335.5 1079 335.9 1077.2 333.8 1065.1 320.1 1063.3 317.9 1064.2 315.2 1070.2 297.5 1071.2 294.7 1073.9 294.1 1091.8 290.6 1094.6 290 1096.8 292.3 1108.9 306 1110.7 308.1 1109.8 310.8Z" fill="rgba(51, 121, 194, 0.58)"></path><path d="M163.7 660.6L166.4 680 155.3 676C154.2 675.5 152.5 676.1 151.6 677.6 151.4 679.2 152 680.9 153.6 681L167.3 686.5 170.1 701.5 141.5 690.1C139.9 689.9 138.2 690.6 137.7 691.7 137.1 693.6 137.7 695.3 139.3 695.4L171 708 174.6 731 150.8 718.6 158 744.4 136.2 736.1 130.6 702.5C131 702.1 130.7 701.7 130.3 701.3 129.6 700.4 128.5 699.9 127.3 700.1 126.1 700.4 125.1 701.9 124.9 703.5L130.1 733.9 116 728 113.5 713.4C113.6 712.6 113.3 712.2 112.9 711.8 112.6 711.3 111.4 710.8 110.2 711.1 109 711.3 108 712.8 108.3 714.1L109.8 725.8 91.4 719C89.9 718.1 88.6 719.1 87.7 720.6 87.2 721.8 87.8 723.4 89.7 724L107.7 731.1 98.5 738.5C97.2 739.6 97.4 741.6 98.1 742.4 99.2 743.8 100.7 743.9 102 742.9L113.8 733.4 127.9 739.2 104.4 758.2C103.1 759.3 102.9 760.9 104 762.2 104.7 763.1 106.6 763.7 107.9 762.6L134 741.5 155.9 749.8 133.6 764.1 159.2 770.8 140.9 785.6 109.5 773.5C107.6 772.9 106.3 774 105.8 775.1 105.3 776.3 105.9 777.9 107.4 778.9L136.1 789.5 124.4 799 110.2 793.9C108.7 792.9 107 793.6 106.4 795.5 105.9 796.6 106.5 798.3 108.4 798.9L119.1 803.2 103.9 815.5C102.6 816.6 102.4 818.2 103.5 819.5S106.1 820.9 107.4 819.9L122.7 807.6 124.6 818.9C124.8 820.9 126.3 821.9 127.5 821.6 129.6 821.4 130.5 819.9 129.9 818.3L127.9 803.3 139.6 793.8 144 824.2C144.6 825.8 146.1 826.8 147.3 826.5 149.3 826.3 150.3 824.8 149.7 823.2L144.4 790 162.7 775.2 163.9 801.6 182.6 782.9 186.1 805.9 160 827.1C158.7 828.1 158.9 830.1 159.6 831 160.7 832.3 162.2 832.5 163.5 831.4L187.5 812 189.8 827.4 178.1 836.9C176.8 838 176.6 839.6 177.7 840.9 178.4 841.7 180.3 842.3 181.6 841.3L190.7 833.9 193.9 852.9C194.1 855 195.6 855.9 197.2 855.3 198.5 855 199.8 854 199.1 852.3L196.4 832.9 207.6 836.9C208.7 837.4 210.4 836.8 210.9 835.6 211.4 834.5 211.1 833.3 210.8 832.8 210.4 832.4 210.1 832 209.3 831.9L195.5 826.4 192.7 811.4 221.4 822.8C223 823 224.6 822.4 225.1 821.2 225.7 820.1 225.4 818.9 224.7 818 224.3 817.5 224.3 817.5 223.5 817.5L191.8 804.9 188.3 781.9 212.1 794.3 204.8 768.5 226.7 776.8 232.3 810.4C232.5 811.6 233.6 813 235.6 812.8 236.8 812.5 237.8 811 237.9 809.4L232.8 779 246.9 784.9 249.3 799.5C249.2 801.1 250.7 802 252.7 801.8 253.9 801.6 254.9 800.1 255 798.5L253 787.1 271.4 793.9C272.9 794.8 274.2 793.8 275.2 792.3 275.3 791.5 275 790.3 274.7 789.8 274.3 789.4 274 789 273.2 788.9L255.2 781.8 264.3 774.4C265.7 773.3 265.5 771.3 264.8 770.5L264.8 770.5C263.7 769.2 262.1 769 260.8 770L249.1 779.6 235 773.7 258.5 754.7C259.8 753.6 259.9 752 258.9 750.7S256.3 749.3 255 750.3L228.8 771.4 207 763.1 229.2 748.8 203.7 742.1 222 727.3 253.3 739.4C255.3 740 256.6 738.9 257.1 737.8 257.6 736.7 257 735 255.5 734L227.2 723.1 238.5 713.9 252.7 719C254.2 720 255.8 719.3 256.5 717.4 257 716.3 256.3 714.6 254.9 713.7L243.7 709.7 259 697.4C260.3 696.3 260.4 694.7 259.4 693.4S256.8 692 255.5 693L240.2 705.3 238.2 694C238.3 693.2 238 692.8 237.6 692.3 236.9 691.5 236.1 691.4 235.3 691.3 233.3 691.5 232.4 693 233 694.6L235 709.6 223.2 719.1 218.9 688.7C218.5 688.3 218.2 687.9 217.8 687.4 217.1 686.6 216.3 686.5 215.5 686.4 213.5 686.6 212.6 688.1 213.2 689.7L218.4 722.9 200.1 737.7 199 711.3 180.3 730 176.7 707 202.9 685.9C204.2 684.8 204 682.8 203.3 681.9 202.2 680.6 200.6 680.4 199.3 681.5L175.8 700.5 173 685.5 184.8 676C186.1 674.9 186.3 673.3 185.2 672S182.6 670.6 181.3 671.6L172.1 679 169 660C169 659.2 168.7 658.7 168.3 658.3 168 657.9 166.9 657.3 165.6 657.6 164.4 657.9 163.1 658.9 163.7 660.6ZM194 723.9L194.9 745.5 215.9 750.9 197.5 762.9 203.3 783.5 184 773.8 168.8 789 167.9 767.4 147 762 165 750.3 159.6 729.5 178.5 739.4 194 723.9Z" fill="rgba(51, 121, 194, 0.58)"></path><path d="M1124.3 791.8L1134.8 767.4 1156.8 758.8 1153.3 782.2 1131.8 797.8C1131.8 797.8 1131.6 798 1131.6 798 1131.3 798.5 1131.4 799.4 1131.7 800.1 1132.2 800.9 1133.4 801 1134 800.3L1152.7 786.5 1151 797.9 1142.8 804.1C1142.8 804.1 1142.6 804.3 1142.6 804.3 1142.2 804.8 1142.3 805.7 1142.6 806.4 1143.2 807.2 1144.3 807.3 1144.9 806.5L1150.6 802.5 1149.3 810.8C1149.1 811.5 1149.9 812.6 1150.6 812.7 1151.6 813.1 1152.4 812.1 1152.5 811.4L1153.8 803 1157.9 808.7C1158.5 809.6 1159.6 809.7 1160.2 808.9 1161 808.4 1161.1 807.2 1160.4 806.6L1154.2 798.4 1156.2 787.3 1169.9 806C1170.4 806.9 1171.6 807 1172.2 806.2 1173 805.7 1173.1 804.5 1172.4 803.9L1156.8 782.4 1160.3 759.1 1179 774 1182 800.6C1182.1 801.5 1182.9 802.1 1183.8 802 1184.7 801.9 1185.3 801.1 1185.2 800.2L1182.5 776.8 1191.6 784 1192.7 793.9C1192.8 794.8 1193.5 795.4 1194.4 795.3 1195.3 795.2 1195.9 794.4 1195.8 793.5L1195.1 786.8 1202.1 792.4C1202.6 793.2 1203.7 792.9 1204.3 792.1 1204.9 791.4 1204.8 790.5 1204.1 789.9L1197.6 784.7 1204.3 783.9C1205.2 783.8 1205.8 783.1 1205.7 782.2S1204.8 780.7 1203.9 780.8L1194 781.9 1185 774.7 1208.4 772.1C1209.3 772 1209.9 771.2 1209.8 770.3 1209.7 769.4 1209 768.8 1208.1 768.9L1181.5 771.9 1163 757.2 1185.1 748.5 1208.8 758.8C1209.7 759.2 1210.6 758.6 1211.2 757.9 1211.5 756.9 1211 756.1 1210.2 755.5L1188.9 746.3 1199.6 742.1 1208.9 746.3C1209.9 746.6 1210.7 746.1 1211.3 745.3 1211.7 744.4 1211.1 743.5 1210.6 743.2L1204.2 740.5 1212 737.3C1212.7 737 1213.5 736 1212.9 735.2 1212.4 734.3 1211.6 733.7 1210.8 734.3L1202.9 737.4 1205.6 731C1206 730 1205.4 729.2 1204.9 728.8 1204.2 728.6 1203.3 728.7 1202.9 729.2 1202.9 729.2 1202.7 729.5 1202.7 729.5L1198.5 738.8 1187.9 743 1197.1 721.7C1197.4 720.7 1196.9 719.9 1196.4 719.5 1195.7 719.3 1194.8 719.4 1194.4 719.9 1194.4 719.9 1194.2 720.2 1194.2 720.2L1183.7 744.6 1161.7 753.2 1165.2 729.8 1186.7 714.2C1187.5 713.6 1187.6 712.5 1186.9 711.9 1186.3 711 1185.2 710.9 1184.6 711.7L1165.8 725.4 1167.5 714.1 1175.7 707.9C1176.6 707.4 1176.7 706.2 1175.9 705.6 1175.4 704.8 1174.2 704.7 1173.6 705.4L1167.9 709.5 1169.3 701.1C1169.4 700.4 1168.6 699.4 1167.9 699.2 1167.2 699.1 1166.6 699.4 1166.2 699.9 1166 700.1 1165.8 700.4 1165.8 700.8L1164.5 709.2 1160.4 703.5C1159.9 702.6 1158.7 702.5 1158.1 703.3 1158.1 703.3 1157.9 703.5 1157.9 703.5 1157.5 704 1157.6 704.9 1157.9 705.6L1164.1 713.8 1162.4 725.1 1148.7 706.4C1148.1 705.5 1147 705.4 1146.4 706.2 1146.4 706.2 1146.2 706.4 1146.2 706.4 1145.8 706.9 1145.9 707.8 1146.2 708.5L1161.8 730 1158.3 753.4 1139.8 738.6 1136.8 712.1C1136.7 711.2 1135.9 710.6 1135 710.7 1134.1 710.8 1133.5 711.5 1133.6 712.4L1136 735.6 1127 728.4 1125.9 718.5C1125.8 717.6 1125.1 717 1124.2 717.1S1122.7 718 1122.8 718.9L1123.5 725.6 1117 720.4C1116.3 719.8 1115.4 719.9 1114.8 720.7 1114.2 721.4 1114.3 722.3 1115 722.9L1121.5 728.1 1114.8 728.9C1114.3 728.9 1113.9 729 1113.5 729.5S1113.1 730.4 1113.2 730.9C1113.3 731.8 1114 732.4 1114.9 732.3L1124.8 731.2 1133.8 738.3 1110.4 741C1110 741 1109.5 741.1 1109.1 741.6 1108.9 741.8 1108.8 742.5 1108.8 743 1108.9 743.9 1109.7 744.5 1110.6 744.4L1137.1 741.4 1155.6 756.2 1133.6 764.8 1109.2 754.3C1108.5 754.2 1107.6 754.3 1107.2 754.8 1107.2 754.8 1107 755 1107 755 1106.7 756 1107.2 756.8 1107.7 757.2L1129 766.4 1118.3 770.6 1109 766.4C1108.3 766.3 1107.4 766.4 1107 766.9 1107 766.9 1106.8 767.1 1106.8 767.1 1106.4 768.1 1107 768.9 1107.5 769.3L1113.9 772 1106.1 775.2C1105.9 775.4 1105.4 775.5 1105.2 775.7 1104.8 776.2 1104.7 776.9 1105 777.6 1105.5 778.4 1106.3 779 1107.1 778.5L1115 775.3 1112.3 781.8C1111.9 782.7 1112.5 783.6 1113 783.9 1113.9 784.3 1114.8 783.7 1115.2 783.2L1119.4 773.9 1130.1 769.7 1120.8 791C1120.5 792 1121 792.8 1121.5 793.2 1122.9 793.1 1124 792.7 1124.3 791.8Z" fill="rgba(51, 121, 194, 0.58)"></path><path d="M925.2 622.1L922.2 611.3 928.8 612.8C929.4 613 930.3 612.5 930.8 611.6 930.7 610.7 930.3 609.8 929.4 609.8L921.2 607.8 918.5 599.4 935.5 603.7C936.4 603.7 937.3 603.2 937.5 602.6 937.7 601.4 937.3 600.5 936.4 600.6L917.5 595.9 913.7 583 928.1 588.3 922.1 574.2 935.1 577.3 940.8 595.9C940.5 596.1 940.8 596.4 941 596.6 941.5 597 942.2 597.2 942.8 597 943.5 596.7 943.9 595.8 943.9 594.9L938.7 578.1 947.1 580.4 949.6 588.4C949.6 588.9 949.9 589.1 950.1 589.3 950.3 589.6 951 589.8 951.7 589.5 952.4 589.3 952.8 588.4 952.5 587.7L950.8 581.2 961.7 583.6C962.6 584 963.3 583.3 963.7 582.4 963.9 581.7 963.5 580.8 962.3 580.6L951.6 578 956.2 573.1C956.9 572.4 956.6 571.3 956.2 570.8 955.5 570.2 954.6 570.2 953.9 570.9L948 577.2 939.5 574.9 951.4 562.4C952.1 561.7 952.1 560.8 951.4 560.1 950.9 559.7 949.8 559.5 949.1 560.2L935.9 574.1 922.9 571 934.4 561.2 919.4 559.4 928.7 549.6 947.4 554.1C948.5 554.3 949.2 553.6 949.4 552.9 949.6 552.2 949.1 551.3 948.2 550.9L931.1 547.1 937 540.8 945.5 542.6C946.4 543 947.3 542.6 947.5 541.4 947.7 540.7 947.2 539.8 946.1 539.6L939.7 538 947.4 529.9C948.1 529.2 948 528.3 947.3 527.6S945.7 527 945.1 527.7L937.4 535.8 935.4 529.5C935.1 528.4 934.2 528 933.5 528.2 932.4 528.5 932 529.4 932.5 530.3L934.7 538.6 928.8 544.8 924 528C923.6 527.1 922.6 526.7 922 526.9 920.8 527.2 920.4 528.1 920.9 529L926.4 547.4 917.1 557.2 914.5 542.3 905.3 554.3 901.5 541.5 914.7 527.6C915.4 526.9 915.1 525.7 914.7 525.3 914 524.6 913.1 524.7 912.4 525.4L900.3 538.1 897.8 529.6 903.8 523.3C904.4 522.6 904.4 521.7 903.7 521.1 903.2 520.6 902.1 520.4 901.4 521.1L896.8 526 893.6 515.4C893.3 514.3 892.4 513.9 891.5 514.4 890.9 514.6 890.2 515.3 890.7 516.2L893.7 527 887.1 525.6C886.4 525.4 885.5 525.8 885.3 526.5 885.1 527.2 885.3 527.9 885.6 528.1 885.8 528.3 886 528.5 886.5 528.5L894.7 530.6 897.4 538.9 880.3 534.6C879.4 534.6 878.5 535.1 878.3 535.8 878.1 536.5 878.3 537.1 878.8 537.6 879 537.8 879 537.8 879.5 537.8L898.4 542.5 902.1 555.3 887.7 550 893.8 564.1 880.8 561.1 875.1 542.4C874.8 541.7 874.1 541.1 873 541.3 872.3 541.6 871.9 542.5 871.9 543.4L877.1 560.2 868.7 558 866.2 549.9C866.2 549 865.3 548.6 864.1 548.8 863.5 549.1 863 550 863.1 550.9L865 557.2 854.1 554.7C853.2 554.3 852.5 555 852.1 555.9 852.1 556.4 852.4 557 852.6 557.3 852.8 557.5 853.1 557.7 853.5 557.7L864.2 560.4 859.6 565.2C858.9 565.9 859.2 567.1 859.7 567.5L859.7 567.5C860.4 568.2 861.3 568.1 861.9 567.4L867.9 561.2 876.3 563.4 864.4 576C863.8 576.7 863.8 577.6 864.5 578.2S866.1 578.9 866.7 578.2L879.9 564.2 892.9 567.3 881.4 577.1 896.4 579 887.2 588.7 868.5 584.2C867.3 584 866.7 584.7 866.5 585.4 866.3 586.1 866.7 587 867.7 587.4L884.5 591.5 878.8 597.5 870.4 595.7C869.4 595.3 868.6 595.8 868.4 596.9 868.2 597.6 868.6 598.5 869.5 598.9L876.1 600.3 868.4 608.5C867.8 609.2 867.8 610.1 868.5 610.7S870.1 611.4 870.8 610.7L878.5 602.5 880.4 608.8C880.5 609.3 880.7 609.5 880.9 609.7 881.4 610.2 881.8 610.1 882.3 610.1 883.4 609.9 883.8 609 883.4 608.1L881.1 599.8 887.1 593.5 891.8 610.3C892 610.6 892.3 610.8 892.5 611 893 611.4 893.4 611.4 893.9 611.4 895 611.2 895.4 610.2 894.9 609.3L889.5 590.9 898.7 581.2 901.4 596 910.6 584 914.3 596.8 901.1 610.8C900.4 611.5 900.7 612.6 901.2 613 901.8 613.7 902.8 613.7 903.4 613L915.3 600.4 918 608.7 912.1 615C911.4 615.7 911.4 616.6 912.1 617.3S913.7 617.9 914.4 617.2L919 612.3 922.2 622.9C922.2 623.3 922.5 623.6 922.7 623.8 922.9 624 923.6 624.2 924.3 624 925 623.7 925.6 623 925.2 622.1ZM903.2 588.5L901.1 576.4 888.8 574.9 898.3 566.7 893.5 555.5 905.2 559.5 912.6 549.8 914.7 562 927 563.5 917.7 571.4 922.3 582.8 910.9 578.6 903.2 588.5Z" fill="rgba(51, 121, 194, 0.58)"></path><path d="M97 119.4L111.5 98.4 120.7 96.9 115.8 104C115.1 104.6 115.4 105.5 116.1 106.3 116.7 106.5 117.9 106.4 118.1 105.7L125.1 96.1 134.1 94.3 130.9 102.9 120 107.9C120 107.9 119.8 108.2 119.8 108.2 119.3 108.6 119.2 109.5 119.4 110.2 120 110.9 120.6 111.2 121.6 110.8L129.4 107.1 126.2 115.7 103.2 126.8C103.2 126.8 102.8 126.7 102.8 126.7 102.3 127.1 102.2 128 102.4 128.7 102.8 129.7 103.9 130 104.6 129.4L124.7 119.9 121.1 130.5 112.1 134.8C112.1 134.8 112.1 134.8 111.9 135 111.4 135.4 111.1 136 111.3 136.7 111.9 137.5 112.8 138 113.7 137.6L119.6 134.7 116.9 142.4C116.4 143.3 117 144 117.7 144.3 118.6 144.8 119.5 144.5 119.8 143.3L122.7 135.9 125.2 141.7C125.8 142.5 126.6 143 127.4 142.4 128.3 142 128.6 141.3 128.2 140.4L124 131.4 127.8 121.1 137.5 141.4C137.6 142.1 138.7 142.4 139.7 142 140.2 141.6 140.7 140.8 140.3 139.8L129.3 116.9 132.5 108.3 136.1 116.1C136.5 117 137.4 117.1 138.4 116.7 139 116.6 139.4 115.4 139.2 114.7L133.9 104.1 136.9 95.3 142.9 102.3 142 114.1C141.9 115 142.5 115.7 143.4 115.8 144.1 116.1 145.1 115.2 145.1 114.3L145.8 105.8 151.8 112.8 149.5 138.3C149.4 139.2 150.1 139.9 151 140 151.9 140.1 152.6 139.5 152.7 138.6L154.7 116.3 161.8 124.6 161 134.5C160.9 135.4 161.5 136.1 162.4 136.2 163.3 136.3 164 135.6 164.1 134.7L164.9 128.2 170 134.3C170.7 135.1 171.6 135.1 172.3 134.5 173 133.9 173.1 133 172.5 132.2L167.3 126.1 173.6 126.7C174.5 126.7 175.3 126.1 175.3 125.2S174.8 123.6 173.9 123.5L164.4 122.7 157.2 114.2 179.3 116C180.2 116.1 180.9 115.5 181 114.6 181.1 113.7 180.4 112.9 179.5 112.9L154.3 110.8 148.3 103.7 156.8 104.4C157.8 104.5 158.5 103.9 158.6 102.9 158.6 102 158 101.3 157.1 101.2L145.4 100.3 139.6 93.4 148.3 91.9 158.2 98.6C158.9 98.9 160 98.8 160.3 98.1 160.8 97.2 160.7 96.5 160.1 95.8L153 90.9 161.7 89.4 182.8 103.8C183.6 104.3 184.3 104.2 185.1 103.5 185.6 102.7 185.2 101.7 184.8 101.3L166.3 88.4 177.4 86.6 185.3 92C186 92.7 186.9 92.3 187.6 91.7 187.9 91.1 187.8 89.9 186.9 89.4L181.8 85.8 189.6 84.2C190.5 84.2 191 83.4 190.9 82.2 190.7 81.5 189.9 81 189.2 81.2L181.1 82.6 185 77.2C185.5 76.3 185.1 75.4 184.5 75.1 183.8 74.4 183.1 74.6 182.7 75 182.4 75.2 182.4 75.2 182.2 75.4L176.7 83.3 165.7 85.1 178.3 66.9C179.1 66.3 178.7 65.3 178.1 64.6 177.4 64.3 176.7 64.5 176.2 64.9 176 65.1 176 65.1 176 65.1L161.1 86.1 152.3 87.7 157.2 80.6C157.7 79.7 157.6 79 157 78.3 156.3 78 155.4 77.9 154.9 78.4 154.7 78.6 154.7 78.6 154.4 78.8L147.7 88.7 138.9 90.2 141.9 81.8 152.6 76.6C153.5 76.2 153.8 75.1 153.6 74.4 153 73.7 152.2 73.1 151.4 73.8L143.6 77.4 146.4 68.8 169.8 57.8C170.5 57.6 170.8 56.5 170.6 55.8 170 55.1 169.1 54.6 168.2 54.9L148.1 64.4 151.9 54 160.6 50C161.6 49.6 161.9 48.5 161.3 47.8 161.1 47.1 160.3 46.6 159.3 46.9L153.4 49.8 156.1 42.1C156.4 41.5 156 40.5 155.1 40 154.7 40 154 40.1 153.5 40.5 153.5 40.5 153.2 40.8 153 41L150.3 48.7 147.4 42.8C147.2 42.1 146.1 41.8 145.4 41.9 145.2 42.1 145.2 42.1 145.2 42.1 144.4 42.8 144.4 43.7 144.8 44.1L148.8 52.9 145.2 63.5 135.6 43.2C134.9 42.4 134.3 42.1 133.3 42.5 133.3 42.5 133.1 42.7 133.1 42.7 132.6 43.1 132.3 43.8 132.7 44.7L143.5 67.9 140.5 76.3 136.9 68.5C136.3 67.7 135.4 67.2 134.7 67.8 134.5 67.6 134.2 67.8 134.2 67.8 133.7 68.2 133.6 69.1 133.8 69.8L139.1 80.5 135.9 89 130.1 82.2 131 70.5C131.1 69.6 130.3 68.6 129.4 68.5 128.7 68.7 128 69.3 127.7 70L127.2 78.8 121.2 71.7 123.3 46.5C123.3 45.6 122.7 44.8 121.8 44.7 120.9 44.7 120.2 45.3 120.1 46.2L118.3 68.3 111 59.8 111.8 50.3C111.9 49.4 111.3 48.6 110.4 48.6S108.7 49.1 108.7 50L108.1 56.3 103 50.2C102.3 49.5 101.4 49.4 100.7 50 100 50.7 99.9 51.6 100.5 52.3L105.7 58.4 99.1 58.1C98.7 58.1 98.2 58 98 58.2 97.7 58.4 97.5 59.1 97.4 59.5 97.4 60.4 98 61.2 98.9 61.3L108.6 61.8 115.8 70.4 93.5 68.8C93 68.7 92.6 68.7 92.3 68.9 92.1 69.1 91.8 69.8 91.8 70.2 91.7 71.1 92.3 71.8 93.2 71.9L118.7 73.8 124.7 80.9 116 79.9C115.5 79.9 115 80.3 114.8 80.5 114.5 80.7 114.3 80.9 114.2 81.4 114.2 82.3 115 83.2 115.7 83.1L127.6 84.3 133.4 91.1 124.4 92.9 114.8 85.9C114.1 85.7 113.2 85.6 112.7 86 112.5 86.2 112.5 86.2 112.7 86.5 112 87.1 112.1 88.2 113 88.7L120 93.6 111 95.4 90 80.5C89.4 80.2 88.7 80.4 88.2 80.8 87.9 81 87.9 81 87.9 81 87.4 81.9 87.3 82.8 88.2 83.3L106.7 96.2 95.6 98 87.7 92.6C86.8 92 86.1 92.2 85.6 92.6 85.6 92.6 85.4 92.8 85.4 92.8 84.8 93.7 85.2 94.6 85.6 95.1L91.2 98.8 83.2 100.1C82.9 100.4 82.7 100.6 82.5 100.8 82.2 101 81.9 101.6 81.9 102.1 82.3 103 82.9 103.8 83.8 103.4L91.9 102 88 107.4C87.5 108.2 87.9 109.2 88.3 109.6 89.2 110.2 90.1 109.8 90.8 109.2L96.3 101.2 107.1 99.2 94.5 117.4C93.9 118.3 94.1 119.4 94.7 119.7 95.6 120.2 96.5 120.3 97 119.4Z" fill="rgba(51, 121, 194, 0.58)"></path></g><defs><mask id="SvgjsMask1012"><rect width="1440" height="800" fill="#ffffff"></rect></mask><filter id="SvgjsFilter1013"><feGaussianBlur stdDeviation="1"></feGaussianBlur></filter></defs></svg>